<svg xmlns="http://www.w3.org/2000/svg" version="1.1" xmlns:xlink="http://www.w3.org/1999/xlink" viewBox="0 0 200 200"><rect width="200" height="200" fill="url('#gradient')"></rect><defs><linearGradient id="gradient" gradientTransform="rotate(45 0.5 0.5)"><stop offset="0%" stop-color="#593e3e"></stop><stop offset="100%" stop-color="#352727"></stop></linearGradient></defs><g><g fill="#2f1b1d" transform="matrix(2.6278575046429173,0,0,2.6278575046429173,23.436627538209635,119.46151094969595)" stroke="#866067" stroke-width="0.8"><path d="M8.39-10.57L10.05-4.34L11.11-10.57L14.27-10.57L11.78 0L8.99 0L7.25-6.27L5.49 0L2.71 0L0.21-10.57L3.37-10.57L4.41-4.19L6.09-10.57L8.39-10.57ZM18.66-15L18.66-9.43Q19.72-10.76 21.36-10.76L21.36-10.76Q23.11-10.76 23.99-9.73Q24.88-8.69 24.90-6.67L24.90-6.67L24.90 0L21.60 0L21.60-6.59Q21.60-7.43 21.26-7.83Q20.92-8.22 20.10-8.22L20.10-8.22Q19.08-8.22 18.66-7.58L18.66-7.58L18.66 0L15.37 0L15.37-15L18.66-15ZM35.98 0L32.69 0Q32.51-0.32 32.37-0.95L32.37-0.95Q31.46 0.20 29.83 0.20L29.83 0.20Q28.34 0.20 27.29-0.71Q26.25-1.61 26.25-2.98L26.25-2.98Q26.25-4.70 27.52-5.58Q28.79-6.46 31.21-6.46L31.21-6.46L32.23-6.46L32.23-7.01Q32.23-8.47 30.97-8.47L30.97-8.47Q29.79-8.47 29.79-7.31L29.79-7.31L26.50-7.31Q26.50-8.85 27.81-9.80Q29.11-10.76 31.13-10.76Q33.15-10.76 34.33-9.78Q35.50-8.79 35.53-7.07L35.53-7.07L35.53-2.39Q35.55-0.94 35.98-0.17L35.98-0.17L35.98 0ZM30.63-2.15L30.63-2.15Q31.24-2.15 31.65-2.41Q32.05-2.68 32.23-3.01L32.23-3.01L32.23-4.70L31.27-4.70Q29.55-4.70 29.55-3.15L29.55-3.15Q29.55-2.71 29.85-2.43Q30.16-2.15 30.63-2.15ZM41.82-2.34L41.82-2.34Q42.51-2.34 42.89-2.72Q43.27-3.10 43.26-3.77L43.26-3.77L46.35-3.77Q46.35-2.03 45.10-0.92Q43.86 0.20 41.89 0.20L41.89 0.20Q39.59 0.20 38.26-1.25Q36.93-2.70 36.93-5.25L36.93-5.25L36.93-5.39Q36.93-6.99 37.52-8.22Q38.12-9.44 39.23-10.10Q40.34-10.76 41.87-10.76L41.87-10.76Q43.93-10.76 45.14-9.62Q46.35-8.48 46.35-6.52L46.35-6.52L43.26-6.52Q43.26-7.34 42.86-7.78Q42.46-8.22 41.79-8.22L41.79-8.22Q40.51-8.22 40.29-6.59L40.29-6.59Q40.22-6.07 40.22-5.17L40.22-5.17Q40.22-3.57 40.61-2.96Q40.99-2.34 41.82-2.34ZM54.29 0L51.98-3.94L51.05-3.01L51.05 0L47.76 0L47.76-15.01L51.05-15.01L51.05-7.04L51.39-7.48L53.87-10.57L57.81-10.57L54.11-6.22L58.06 0L54.29 0Z"></path></g></g></svg>